<?xml version="1.0" encoding="UTF-8" standalone="no"?>
<!-- Created with Inkscape (http://www.inkscape.org/) -->

<svg
   width="67.524635"
   height="66.695946"
   viewBox="0 0 17.865894 17.646636"
   version="1.1"
   id="svg5"
   xml:space="preserve"
   inkscape:version="1.2.2 (b0a8486541, 2022-12-01)"
   sodipodi:docname="Planning_the_shoot.svg"
   xmlns:inkscape="http://www.inkscape.org/namespaces/inkscape"
   xmlns:sodipodi="http://sodipodi.sourceforge.net/DTD/sodipodi-0.dtd"
   xmlns="http://www.w3.org/2000/svg"
   xmlns:svg="http://www.w3.org/2000/svg"><sodipodi:namedview
     id="namedview7"
     pagecolor="#ffffff"
     bordercolor="#eeeeee"
     borderopacity="1"
     inkscape:showpageshadow="0"
     inkscape:pageopacity="0"
     inkscape:pagecheckerboard="0"
     inkscape:deskcolor="#505050"
     inkscape:document-units="mm"
     showgrid="false"
     inkscape:zoom="0.71624579"
     inkscape:cx="423.03914"
     inkscape:cy="601.74874"
     inkscape:window-width="1920"
     inkscape:window-height="1043"
     inkscape:window-x="1920"
     inkscape:window-y="0"
     inkscape:window-maximized="1"
     inkscape:current-layer="layer1" /><defs
     id="defs2" /><g
     inkscape:label="Capa 1"
     inkscape:groupmode="layer"
     id="layer1"
     transform="translate(43.771693,-131.29156)"><g
       id="g645-3-3"
       transform="matrix(0.00740703,0.00132125,0.00132125,-0.00740703,-85.155146,183.30934)"
       inkscape:export-filename="ptshoot.svg"
       inkscape:export-xdpi="96"
       inkscape:export-ydpi="96"
       style="fill:#ffffff"><path
         d="m 6723.4701,6994.5089 c 10.3689,-60.8014 16.9803,-122.4462 15.1279,-184.2227 -1.6001,-53.4898 -9.0059,-104.9539 -21.2272,-156.9753 19.6346,100.1987 19.9057,199.5765 4.454,300.5056 -16.9049,110.4696 -51.1253,218.8195 -95.6843,321.168 -91.4036,209.9453 -229.2788,404.488 -406.3405,550.6124 -87.6799,72.3563 -185.4915,127.0545 -294.3497,159.7989 97.6422,-25.4215 186.429,-68.9527 267.7272,-128.7977 91.8253,-67.5972 171.0113,-148.1989 242.0761,-237.1251 72.9512,-91.283 134.4679,-192.8709 183.3606,-298.9355 47.9099,-103.926 85.5752,-213.0063 104.8559,-326.0286 z m -1243.4562,91.3772 c 46.9649,-123.5456 112.4688,-240.4873 192.1744,-345.8327 97.1377,-128.3799 218.6464,-243.9812 362.1052,-319.022 132.7811,-69.4496 289.1878,-104.615 432.6278,-46.6373 10.6437,4.3034 20.8733,9.6008 31.2083,14.5857 -60.184,-35.2896 -123.7828,-55.6772 -193.9026,-58.3165 -78.6213,-2.9631 -156.3653,14.0962 -229.3089,42.6615 -152.6793,59.7924 -285.9801,168.1348 -391.3632,292.3655 -88.9939,104.9087 -161.0678,222.9461 -215.5176,349.1535 -65.0747,150.8344 -103.0412,319.1989 -93.0225,483.9715 9.3034,153.0332 64.4573,312.5611 211.2801,411.7902 92.2676,61.0862 147.1267,50.1834 330.9966,-8.526 195.0886,-58.7343 407.8464,-239.4442 559.1666,-497.9245 234.5121,-400.5912 233.9888,-838.4939 -1.1672,-976.1583 -142.4309,-83.3802 -338.7619,-37.7519 -523.5607,100.1761 -61.9096,61.486 -212.9485,128.1648 -91.573,191.0374 l 253.2771,207.9988 c 1.3479,1.1107 2.5301,2.3457 3.5994,3.6559 88.4422,168.1701 -45.3623,319.6 -142.9279,346.4388 -24.3365,8.6927 -329.1635,-125.9519 -494.0919,-191.4176 z m -201.267,-742.1732 c -110.575,12.4283 -215.6381,80.4435 -278.5479,187.9086 -81.0121,138.3798 -69.3857,309.696 24.9734,419.8494 114.9161,74.3818 211.297,175.8831 286.7406,273.4237 27.0404,-135.556 77.8269,-273.7852 155.8231,-407.0181 67.6952,-115.639 148.5115,-217.0801 237.208,-301.8346 -106.3649,9.3163 -272.7141,-81.6969 -426.1972,-172.329 z m -509.7506,209.55 c -17.6806,80.9142 -17.3154,162.491 10.6136,241.3005 -8.012,-12.5262 -15.5157,-25.493 -21.9727,-39.3257 -34.0509,-72.9361 -42.2888,-150.153 -33.712,-229.4632 -17.6806,80.9141 -17.3154,162.4909 10.6136,241.3042 -8.012,-12.53 -15.5157,-25.4967 -21.9727,-39.3294 -34.0547,-72.9361 -42.2925,-150.1568 -33.7158,-229.4671 -17.6806,80.918 -17.3154,162.4948 10.6136,241.3081 -8.012,-12.53 -15.5157,-25.4968 -21.9727,-39.3295 -34.0547,-72.9361 -42.2888,-150.1567 -33.7158,-229.467 -17.6806,80.9179 -17.3116,162.4947 10.6174,241.308 -8.012,-12.53 -15.5157,-25.4967 -21.9765,-39.3332 -34.0547,-72.9323 -42.2888,-150.153 -33.712,-229.4633 -17.6844,80.918 -17.3154,162.4948 10.6173,241.3081 -8.0157,-12.53 -15.5194,-25.4968 -21.9802,-39.3333 -34.0509,-72.9398 -42.2812,-150.153 -33.712,-229.4632 -17.6881,80.948 -17.3191,162.5625 10.6475,241.4059 6.5323,18.4185 14.5179,35.8393 23.49,52.5522 22.368,25.365 48.8324,47.5297 79.2763,65.3571 l 320.9873,200.6533 c -18.1022,-22.6692 -74.2275,-114.6375 -85.1724,-138.0786 -34.0546,-72.9323 -42.2925,-150.1567 -33.712,-229.467 -17.6844,80.9142 -17.3191,162.4985 10.6136,241.3081 -8.012,-12.5301 -15.5157,-25.4968 -21.9765,-39.3333 -34.0509,-72.9323 -42.285,-150.153 -33.712,-229.4632 -17.6843,80.9141 -17.3154,162.4947 10.6136,241.3042 -8.012,-12.53 -15.5157,-25.4967 -21.9727,-39.3294 -34.0547,-72.9323 -42.2925,-150.1568 -33.7158,-229.4633 z m 658.744,-309.8993 c 41.8181,-45.5417 81.4262,-93.1994 120.9665,-140.7178 27.0705,-32.5298 54.4536,-63.7908 86.7612,-91.3094 30.7151,-26.1556 64.5966,-47.5862 98.0865,-69.9128 31.3401,-20.8959 70.726,-40.2782 75.1537,-82.0135 -12.9404,34.2278 -44.0019,48.1471 -73.5159,65.9406 -34.2881,20.6738 -68.9678,41.3551 -100.1987,66.5243 -63.0604,50.8241 -110.8273,119.3438 -158.6807,183.9629 -16.5021,22.2777 -32.8574,44.6871 -48.5726,67.5257 z m 113.7339,-529.1668 c -0.4443,0.5459 -0.9112,1.0806 -1.4006,1.5851 l -382.5304,401.1974 c 67.3934,36.1282 122.3036,66.4132 168.1423,89.9276 l 180.3786,-221.7901 c 33.7007,-41.4379 73.6025,-77.0588 118.5795,-105.865 l 108.5005,-69.4949 c 6.7394,-4.3222 10.6475,-11.3779 10.7303,-19.3786 0.087,-8.0044 -3.6784,-15.1504 -10.3237,-19.5969 l -103.2558,-69.1259 c -26.1293,-14.8869 -67.8006,-13.4562 -88.8207,12.5413 z m 535.4243,1251.3251 c -32.8913,-19.2543 -100.3944,12.0142 -144.6824,87.6687 -44.2918,75.6544 -38.5087,149.8216 -5.6212,169.076 32.8913,19.2543 100.3982,-12.0142 144.6862,-87.6686 44.288,-75.6545 38.5087,-149.8217 5.6174,-169.0761 z m -383.1064,-169.219 212.9875,157.0392 -241.8051,-109.1255 119.5471,95.1836 -149.0649,-54.5741 c -1.3177,2.1762 -2.6204,4.3712 -3.9306,6.5587 l 83.1882,66.5469 -105.3793,-28.249 c -1.4684,2.6242 -2.9292,5.2522 -4.3787,7.8802 l 66.351,54.0883 -86.1475,-16.8786 c -1.5098,2.9405 -3.0158,5.8772 -4.503,8.8177 l 59.7811,47.9627 -77.2546,-12.1008 c -1.5022,3.1927 -2.9555,6.3892 -4.4239,9.5857 l 56.577,45.3912 -71.7425,-11.2386 c -1.3178,3.0835 -2.6431,6.1671 -3.9345,9.2506 l 312.1508,121.6857 c -9.9736,-47.7631 1.6039,-108.9373 35.6698,-167.1257 18.3131,-31.2836 40.5682,-57.2924 64.4573,-76.9722 L 5697.8432,6790.708 c -1.3479,1.8675 -2.7108,3.7161 -4.0511,5.5949 z M 6086.232,7957.704 c -194.6707,104.8372 -381.1562,116.1624 -525.1232,31.8823 -171.753,-100.5487 -268.9019,-286.556 -272.7799,-507.6271 -0.9601,-54.7773 2.018,-110.9477 9.1226,-167.8975 -45.2556,-63.4219 -100.2739,-131.0945 -164.1438,-192.8785 -25.4252,-8.0384 -49.8188,-18.7988 -72.7177,-32.2061 -7.3305,-4.2883 -14.7438,-9.0699 -23.2867,-15.0111 l -407.0896,-254.4894 c -191.1692,-111.9154 -248.247,-371.1374 -127.2353,-577.8524 121.0079,-206.7037 374.989,-283.8227 565.281,-172.393 l 41.8482,22.3793 391.7773,-410.8886 c 35.7753,-43.2526 103.7039,-53.5989 155.2132,-23.441 0.448,0.2598 0.8961,0.5384 1.3253,0.8321 l 103.9637,69.6002 c 11.359,7.6054 20.1843,17.9705 25.8996,29.868 2.0896,2.8915 3.9871,5.9412 5.6513,9.1339 38.8287,74.3066 40.6095,83.2109 41.5583,87.9887 6.137,30.6511 -6.8711,61.3247 -33.1284,78.128 l -101.9795,65.3157 c -44.6758,28.618 -84.2877,63.9829 -117.7361,105.112 l -136.6366,168.0067 c 45.6886,35.0499 86.851,61.0439 134.9912,85.3042 93.7718,23.859 189.6256,33.4335 276.0593,35.5682 33.2978,-22.8348 67.1944,-43.5011 101.49,-61.8556 210.48,-112.6495 386.6493,-124.2496 580.3072,-10.8809 143.9633,84.2801 225.3782,252.4412 229.2599,473.5047 3.7274,212.0877 -64.9052,449.6269 -193.2512,668.8644 -128.3422,219.2299 -301.876,395.3578 -488.6401,495.9328"
         style="fill:#ffffff;fill-opacity:1;fill-rule:nonzero;stroke:none;stroke-width:0.376503"
         id="path651-6-7"
         sodipodi:nodetypes="ssccsscsssscscscsssssccssccccccccccscccccccccccccsccccscccsccscccccscscssscscccssccccsssssscccccccccccccccccccsccccssccsccscccscccccccscccssssc" /></g></g></svg>
